<svg xmlns="http://www.w3.org/2000/svg" width="75" height="32" viewBox="0 0 75 32" fill="none">
    <path fill-rule="evenodd" clip-rule="evenodd"
        d="M27.4997 24.2943C27.7528 24.2943 28.0141 24.1941 28.2835 23.9931C28.5524 23.7926 28.7859 23.5238 28.984 23.1866C29.1819 22.8495 29.2808 22.4806 29.2808 22.079V21.9827H29.1859C28.7426 21.9827 28.319 22.0109 27.9154 22.067C27.5118 22.1233 27.1869 22.2436 26.9416 22.428C26.696 22.6129 26.5735 22.8977 26.5735 23.283C26.5735 23.6363 26.6605 23.893 26.8347 24.0535C27.0089 24.2139 27.2304 24.2943 27.4997 24.2943ZM25.9084 27.0152C25.0849 27.0152 24.3726 26.7545 23.771 26.2326C23.1691 25.711 22.8686 24.9045 22.8686 23.8126C22.8686 22.8657 23.1061 22.1271 23.5811 21.5973C24.056 21.0676 24.7091 20.6986 25.5403 20.4898C26.3717 20.2815 27.3334 20.1769 28.4258 20.1769H29.2807V19.9359C29.2807 19.663 29.2251 19.3904 29.1145 19.1172C29.0036 18.8445 28.8215 18.6157 28.5685 18.4309C28.3149 18.2467 27.9586 18.1542 27.4996 18.1542C26.8503 18.1542 26.3674 18.2184 26.051 18.3467C25.734 18.4752 25.4886 18.6076 25.3146 18.744C25.1401 18.8805 24.9426 18.9486 24.721 18.9486C24.3251 18.9486 24.0203 18.7482 23.8065 18.3467C23.593 17.9457 23.486 17.5282 23.486 17.0945C23.486 16.7094 23.7034 16.3723 24.1392 16.0834C24.5745 15.7944 25.1046 15.5696 25.7303 15.409C26.3555 15.2487 26.9612 15.1684 27.5472 15.1684C28.8451 15.1684 29.8902 15.3932 30.682 15.8425C31.4737 16.292 32.0512 16.8741 32.4157 17.5883C32.7798 18.3028 32.9619 19.0691 32.9619 19.8879V25.6185C32.9619 25.94 32.7915 26.2128 32.4512 26.4373C32.1106 26.6622 31.6794 26.7745 31.1569 26.7745C30.6977 26.7745 30.3098 26.6622 29.9934 26.4373C29.6763 26.2128 29.5183 25.94 29.5183 25.6185V25.0889C29.091 25.5868 28.5921 26.0321 28.0222 26.4251C27.4522 26.8183 26.7475 27.0152 25.9084 27.0152Z"
        fill="#9719B9" />
    <path fill-rule="evenodd" clip-rule="evenodd"
        d="M35.8978 26.7745C35.391 26.7745 34.9633 26.6702 34.6152 26.4616C34.2668 26.2531 34.0929 25.9799 34.0929 25.6428C34.0929 25.6428 34.1072 18.9484 34.1206 14.094C34.1277 11.5029 36.2013 9.40784 38.7571 9.40784H39.9826C40.4416 9.40784 40.7859 9.57254 41.0156 9.90135C41.245 10.2305 41.36 10.5875 41.36 10.9728C41.36 11.3742 41.245 11.7355 41.0156 12.0564C40.7859 12.3777 40.4416 12.538 39.9826 12.538H39.4892C38.5415 12.538 37.7732 13.3176 37.773 14.2785C37.7729 14.8475 37.774 15.3129 37.774 15.3129H39.8316C40.1321 15.3129 40.3577 15.4536 40.5084 15.7342C40.6587 16.0154 40.7342 16.3163 40.7342 16.6372C40.7342 16.9743 40.6587 17.2795 40.5084 17.5522C40.3577 17.8253 40.1321 17.9616 39.8316 17.9616H37.774V25.6428C37.774 25.9799 37.5876 26.2531 37.2159 26.4616C36.8436 26.6702 36.4043 26.7745 35.8978 26.7745Z"
        fill="#9719B9" />
    <path fill-rule="evenodd" clip-rule="evenodd"
        d="M44.3299 19.8879H47.2749C47.4489 19.8879 47.5754 19.8479 47.6549 19.7676C47.734 19.6874 47.7735 19.5348 47.7735 19.31C47.7735 18.989 47.6903 18.72 47.5246 18.5034C47.3581 18.2865 47.1442 18.1264 46.8828 18.0218C46.6219 17.9174 46.3405 17.8652 46.04 17.8652C45.7549 17.8652 45.4819 17.9174 45.2205 18.0218C44.9592 18.1264 44.7456 18.2865 44.5796 18.5034C44.4131 18.72 44.3299 18.989 44.3299 19.31V19.8879ZM46.6573 27.0152C45.4856 27.0152 44.4489 26.8023 43.5461 26.3771C42.6438 25.9521 41.935 25.3536 41.4207 24.5832C40.906 23.8126 40.6489 22.9218 40.6489 21.9106V20.1525C40.6489 19.2538 40.8941 18.4271 41.385 17.6724C41.8759 16.9179 42.5327 16.312 43.3564 15.8545C44.1796 15.397 45.0977 15.1683 46.1112 15.1683C47.0289 15.1683 47.8721 15.361 48.6404 15.7461C49.4083 16.1314 50.0297 16.6652 50.5046 17.3474C50.9799 18.0297 51.2172 18.8282 51.2172 19.7432C51.2172 20.4657 51.1019 20.9831 50.873 21.2965C50.6432 21.6093 50.3502 21.802 49.9939 21.8743C49.6381 21.9466 49.2777 21.9827 48.9135 21.9827H44.3299V22.1271C44.3299 22.7213 44.5517 23.1987 44.9949 23.5598C45.4382 23.9208 46.0242 24.1016 46.7526 24.1016C47.2428 24.1016 47.6624 24.0256 48.0112 23.8727C48.3591 23.7205 48.6679 23.572 48.9372 23.4273C49.2061 23.2828 49.4679 23.2106 49.7213 23.2106C50.006 23.2106 50.2512 23.3069 50.4572 23.4995C50.6628 23.6923 50.8172 23.9172 50.9204 24.1739C51.0232 24.4309 51.0748 24.6552 51.0748 24.848C51.0748 25.1531 50.8925 25.474 50.5288 25.8112C50.1642 26.1483 49.6535 26.4334 48.9967 26.666C48.3395 26.8984 47.56 27.0152 46.6573 27.0152Z"
        fill="#9719B9" />
    <path fill-rule="evenodd" clip-rule="evenodd"
        d="M55.779 19.8879H58.7241C58.8981 19.8879 59.0246 19.8479 59.1041 19.7676C59.1832 19.6874 59.2227 19.5349 59.2227 19.31C59.2227 18.9891 59.1395 18.72 58.9734 18.5034C58.8069 18.2865 58.5934 18.1264 58.332 18.0218C58.0711 17.9175 57.7897 17.8652 57.4892 17.8652C57.2041 17.8652 56.9311 17.9175 56.6697 18.0218C56.4083 18.1264 56.1948 18.2865 56.0283 18.5034C55.8623 18.72 55.779 18.9891 55.779 19.31V19.8879ZM54.9953 26.3771C54.093 25.9522 53.3838 25.3536 52.8698 24.5832C52.355 23.8126 52.0982 22.9218 52.0982 21.9106V20.1525C52.0982 19.2538 52.3433 18.4271 52.834 17.6724C53.3251 16.9181 53.9819 16.312 54.8051 15.8545C55.6284 15.397 56.5469 15.1684 57.56 15.1684C58.4781 15.1684 59.3213 15.361 60.0892 15.7462C60.8575 16.1314 61.4789 16.6652 61.9534 17.3474C62.4287 18.0298 62.6663 18.8283 62.6663 19.7433C62.6663 20.4657 62.5511 20.9832 62.3222 21.2965C62.0924 21.6094 61.7994 21.802 61.4431 21.8743C61.0869 21.9467 60.7268 21.9827 60.3627 21.9827H55.779V22.1271C55.779 22.7213 56.0009 23.1987 56.4441 23.5599C56.887 23.9209 57.4734 24.1016 58.2013 24.1016C58.692 24.1016 59.1116 24.0256 59.4603 23.8728C59.8083 23.7205 60.1171 23.5721 60.3864 23.4274C60.6553 23.2828 60.9166 23.2106 61.1701 23.2106C61.4552 23.2106 61.7003 23.3069 61.9064 23.4996C62.112 23.6923 62.2664 23.9172 62.3696 24.174C62.4724 24.4309 62.5236 24.6553 62.5236 24.8481C62.5236 25.1531 62.3413 25.4741 61.9775 25.8113C61.6134 26.1483 61.1027 26.4335 60.4455 26.6661C59.7887 26.8984 59.0092 27.0152 58.1064 27.0152C56.9348 27.0152 55.8981 26.8023 54.9953 26.3771Z"
        fill="#9719B9" />
    <path fill-rule="evenodd" clip-rule="evenodd"
        d="M69.0378 23.7647C69.3857 23.7647 69.6945 23.6646 69.9638 23.4638C70.2327 23.2632 70.4429 23.0386 70.5935 22.7895C70.7434 22.5407 70.8191 22.3524 70.8191 22.2236V20.225C70.8191 19.9203 70.7396 19.6312 70.5815 19.3582C70.4229 19.0855 70.2094 18.8609 69.9401 18.6842C69.6708 18.5076 69.3703 18.4191 69.0378 18.4191C68.8001 18.4191 68.5745 18.4716 68.361 18.5756C68.1471 18.6805 67.9569 18.8166 67.7908 18.9852C67.6248 19.1536 67.4978 19.3463 67.4108 19.5629C67.3239 19.7797 67.2802 20.0005 67.2802 20.225V21.9107C67.2802 22.2157 67.3634 22.5125 67.5295 22.8015C67.6959 23.0905 67.9132 23.3234 68.1829 23.4999C68.4518 23.6768 68.7369 23.7647 69.0378 23.7647ZM72.6949 32C72.1726 32 71.7293 31.8793 71.3652 31.6387C71.0006 31.3977 70.8191 31.133 70.8191 30.8441V25.0889C70.5969 25.5868 70.2015 26.0323 69.6317 26.4255C69.0615 26.8186 68.4285 27.0153 67.7317 27.0153C67.0034 27.0153 66.3225 26.7746 65.689 26.2931C65.0556 25.8114 64.549 25.1816 64.169 24.4029C63.7895 23.6245 63.5993 22.7938 63.5993 21.9106V20.225C63.5993 19.551 63.7416 18.909 64.0267 18.2987C64.3118 17.6888 64.7034 17.1514 65.2021 16.6855C65.7011 16.22 66.2792 15.851 66.936 15.5779C67.5927 15.3051 68.2932 15.1684 69.0378 15.1684C70.0192 15.1684 70.9219 15.3973 71.7452 15.8548C72.5684 16.3123 73.2331 16.9223 73.74 17.6848C74.2465 18.4473 74.5 19.2944 74.5 20.225V30.8441C74.5 31.133 74.3298 31.3978 73.9893 31.6387C73.6489 31.8794 73.2177 32 72.6949 32Z"
        fill="#9719B9" />
    <path fill-rule="evenodd" clip-rule="evenodd"
        d="M2.00233 12.1959C1.75074 12.1959 1.49514 12.1476 1.24768 12.0454C0.2234 11.6225 -0.268699 10.4375 0.148443 9.399C1.25142 6.65368 3.1136 4.31435 5.53307 2.63369C8.01321 0.91077 10.9186 0 13.9351 0C19.929 0 25.311 3.61694 27.646 9.21447C28.0768 10.2473 27.6004 11.4385 26.5819 11.8755C25.5631 12.3123 24.3882 11.8291 23.9575 10.7965C22.2505 6.70462 18.3164 4.06074 13.9351 4.06074C11.7301 4.06074 9.60735 4.72562 7.79675 5.98335C6.02597 7.21328 4.66391 8.92431 3.85769 10.9312C3.54116 11.7187 2.79252 12.1959 2.00233 12.1959Z"
        fill="#9719B9" />
    <path fill-rule="evenodd" clip-rule="evenodd"
        d="M21.7152 23.8609L19.8943 20.7838C19.857 20.7208 19.8167 20.6605 19.7739 20.6034L19.7839 20.5972L19.5432 20.1903C20.77 18.8044 21.4689 16.9959 21.4689 15.0892C21.4689 10.8775 18.0895 7.45128 13.9356 7.45128C11.9017 7.45128 9.99338 8.25829 8.56277 9.72356C7.14943 11.1709 6.38246 13.0839 6.40264 15.1096C6.41026 15.8769 6.41026 16.2755 6.41026 16.5959C6.41026 16.8875 6.41026 17.1394 6.41575 17.5509C6.43057 18.6626 7.32432 19.5537 8.41756 19.5537C8.42675 19.5537 8.43612 19.5537 8.44548 19.5536C9.55112 19.5384 10.4355 18.6172 10.4203 17.4959C10.4152 17.1117 10.4152 16.8843 10.4152 16.5961C10.4152 16.2665 10.4152 15.8566 10.4075 15.0687C10.3981 14.1352 10.7538 13.2513 11.409 12.5804C12.0816 11.8913 12.979 11.5119 13.9356 11.5119C15.8811 11.5119 17.4637 13.1167 17.4637 15.0892C17.4637 16.2794 16.8817 17.3888 15.907 18.0565C15.8225 18.1143 15.2651 18.4943 15.1556 18.5618C14.8857 18.7284 14.2376 19.1175 14.2376 19.1175L16.3495 22.6864L16.3596 22.6804C16.3894 22.7456 16.4227 22.8099 16.4599 22.8729L18.2809 25.9503C18.6564 26.5846 19.3196 26.9362 20 26.9362C20.3506 26.9362 20.7059 26.8428 21.0284 26.6465C21.9767 26.0696 22.2842 24.8225 21.7152 23.8609Z"
        fill="#9719B9" />
    <path fill-rule="evenodd" clip-rule="evenodd"
        d="M69.0948 7.3422C69.0948 7.49732 69.0565 7.64257 68.9799 7.77803C68.9033 7.91378 68.8022 8.0243 68.6761 8.10938C68.55 8.19462 68.4105 8.23728 68.2578 8.23728C68.1046 8.23728 67.9652 8.19462 67.8391 8.10938C67.713 8.0243 67.6135 7.91378 67.5411 7.77803C67.4683 7.64257 67.432 7.49732 67.432 7.3422V6.52844C67.432 6.38159 67.4683 6.24191 67.5411 6.11025C67.6135 5.97855 67.713 5.86993 67.8391 5.78444C67.9652 5.69937 68.1046 5.6567 68.2578 5.6567C68.4105 5.6567 68.55 5.69937 68.6761 5.78444C68.8022 5.86993 68.9033 5.97855 68.9799 6.11025C69.0565 6.24191 69.0948 6.38159 69.0948 6.52844V7.3422ZM50.203 7.77803C50.1301 7.64257 50.0939 7.49732 50.0939 7.3422V6.52844C50.0939 6.38159 50.1301 6.24191 50.203 6.11025C50.2754 5.97855 50.3749 5.86993 50.501 5.78444C50.6271 5.69937 50.7665 5.6567 50.9197 5.6567C51.072 5.6567 51.2118 5.69937 51.338 5.78444C51.4641 5.86993 51.5652 5.97855 51.6418 6.11025C51.7184 6.24191 51.7562 6.38159 51.7562 6.52844V7.3422C51.7562 7.49732 51.7184 7.64257 51.6418 7.77803C51.5652 7.91378 51.4641 8.0243 51.338 8.10938C51.2118 8.19462 51.072 8.23728 50.9197 8.23728C50.7665 8.23728 50.6271 8.19462 50.501 8.10938C50.3749 8.0243 50.2754 7.91378 50.203 7.77803ZM70.8715 7.3422V6.52844C70.8715 6.07907 70.7513 5.67037 70.5103 5.30228C70.2697 4.93422 69.9505 4.63954 69.553 4.41876C69.1555 4.19793 68.7235 4.08752 68.2578 4.08752C67.7837 4.08752 67.348 4.19996 66.9505 4.42442C66.553 4.64946 66.238 4.94764 66.0049 5.31962C65.7714 5.69164 65.6553 6.09464 65.6553 6.52844V7.3422C65.6553 7.66924 65.7235 7.97945 65.8601 8.27332H62.8484C63.1181 7.6668 63.228 6.99554 63.228 6.49051V4.61342C63.228 4.47417 63.146 4.34614 62.9816 4.22988C62.8172 4.1138 62.6091 4.05555 62.3569 4.05555C62.1047 4.05555 61.8903 4.1138 61.7147 4.22988C61.5391 4.34614 61.4508 4.47417 61.4508 4.61342V6.50528C61.4508 6.86156 61.39 7.207 61.2677 7.46264C61.1453 7.7184 60.9888 7.87867 60.7974 8.02228C60.6213 8.15436 60.4382 8.25787 60.2492 8.27332H53.491C53.4968 8.06629 53.5026 7.86323 53.5076 7.67616C53.5247 7.56653 53.5334 7.45534 53.5334 7.3422V6.52844C53.5334 6.07907 53.4131 5.67037 53.1721 5.30228C52.9316 4.93422 52.6124 4.63954 52.2149 4.41876C51.8174 4.19793 51.3858 4.08752 50.9197 4.08752C50.4456 4.08752 50.0098 4.19996 49.6124 4.42442C49.2153 4.64946 48.8998 4.94764 48.6664 5.31962C48.4333 5.69164 48.3172 6.09464 48.3172 6.52844V7.3422C48.3172 7.77626 48.4374 8.1812 48.678 8.55698C48.919 8.93305 49.2361 9.23503 49.6299 9.4637C50.0232 9.69238 50.4531 9.80657 50.9197 9.80657C50.9209 9.80657 50.9222 9.80631 50.9234 9.80631L50.9255 9.80657H51.8603C51.8599 10.0004 51.859 10.1482 51.8582 10.1512C51.8216 10.3107 51.7579 10.4335 51.6676 10.5201C51.5148 10.6673 51.2972 10.7412 51.0146 10.7412H46.1567C45.8741 10.7412 45.6564 10.6673 45.5032 10.5201C45.3505 10.3731 45.2739 10.125 45.2739 9.77622C45.2739 9.56705 45.2968 9.39677 45.3426 9.26482C45.3888 9.13299 45.4345 9.02272 45.4803 8.93343C45.5261 8.8446 45.549 8.75341 45.549 8.6602C45.549 8.52094 45.4995 8.3989 45.4 8.29404C45.3009 8.18943 45.1823 8.10828 45.0446 8.05017C44.9072 7.99194 44.7849 7.96307 44.6779 7.96307C44.5098 7.96307 44.3528 8.04827 44.2076 8.21884C44.0628 8.38928 43.9458 8.62158 43.858 8.91596C43.7702 9.21063 43.7265 9.54768 43.7265 9.92742C43.7265 10.5319 43.8334 11.0278 44.0473 11.4153C44.2613 11.8029 44.5518 12.0877 44.9185 12.2697C45.2851 12.4516 45.698 12.5429 46.1567 12.5429H51.0146C51.4728 12.5429 51.8857 12.4516 52.2528 12.2697C52.6194 12.0877 52.9099 11.8008 53.1239 11.4094C53.3078 11.0729 53.4123 10.6548 53.4385 10.1547C53.4385 10.1528 53.4423 10.0191 53.4481 9.80657H68.2133C68.2174 9.80657 68.2216 9.80559 68.2257 9.80547C68.2366 9.80559 68.247 9.80657 68.2578 9.80657C68.7235 9.80657 69.1555 9.69031 69.553 9.45771C69.9505 9.22524 70.2697 8.92111 70.5103 8.54533C70.7513 8.16955 70.8715 7.76854 70.8715 7.3422Z"
        fill="#9719B9" />
    <path fill-rule="evenodd" clip-rule="evenodd"
        d="M74.2533 4.25159C74.0889 4.13548 73.8803 4.07723 73.6285 4.07723C73.3763 4.07723 73.162 4.13548 72.9863 4.25159C72.8107 4.36781 72.7225 4.49558 72.7225 4.63522V9.24113C72.7225 9.59741 72.6617 9.90369 72.5393 10.1595C72.417 10.4151 72.2601 10.6145 72.069 10.7583C71.8784 10.9013 71.6795 10.9731 71.473 10.9731H71.1405C70.9723 10.9731 70.825 11.0505 70.6993 11.2056C70.5732 11.3607 70.5099 11.5464 70.5099 11.7635C70.5099 11.9728 70.5732 12.1547 70.6993 12.3098C70.825 12.4648 70.9723 12.5423 71.1405 12.5423H71.9962C73.8866 12.5423 74.4996 10.4201 74.4996 9.22636V4.63522C74.4996 4.49558 74.4181 4.36781 74.2533 4.25159Z"
        fill="#9719B9" />
    <path fill-rule="evenodd" clip-rule="evenodd"
        d="M67.6049 3.14727C67.788 3.31797 68.0099 3.40304 68.27 3.40304C68.5293 3.40304 68.749 3.31797 68.9288 3.14727C69.1082 2.97699 69.1985 2.78313 69.1985 2.56611C69.1985 2.34149 69.1082 2.14777 68.9288 1.98507C68.749 1.8221 68.5293 1.74095 68.27 1.74095C68.0099 1.74095 67.788 1.8221 67.6049 1.98507C67.4214 2.14777 67.3298 2.34149 67.3298 2.56611C67.3298 2.78313 67.4214 2.97699 67.6049 3.14727Z"
        fill="#9719B9" />
    <path fill-rule="evenodd" clip-rule="evenodd"
        d="M51.3432 3.14727C51.5268 3.31797 51.7486 3.40304 52.0083 3.40304C52.268 3.40304 52.4878 3.31797 52.6676 3.14727C52.847 2.97699 52.9369 2.78313 52.9369 2.56611C52.9369 2.34149 52.847 2.14777 52.6676 1.98507C52.4878 1.8221 52.268 1.74095 52.0083 1.74095C51.7486 1.74095 51.5268 1.8221 51.3432 1.98507C51.1601 2.14777 51.0681 2.34149 51.0681 2.56611C51.0681 2.78313 51.1601 2.97699 51.3432 3.14727Z"
        fill="#9719B9" />
    <path fill-rule="evenodd" clip-rule="evenodd"
        d="M49.1905 3.14727C49.374 3.31797 49.5954 3.40304 49.8556 3.40304C50.1149 3.40304 50.335 3.31797 50.5144 3.14727C50.6942 2.97699 50.7841 2.78313 50.7841 2.56611C50.7841 2.34149 50.6942 2.14777 50.5144 1.98507C50.335 1.8221 50.1149 1.74095 49.8556 1.74095C49.5954 1.74095 49.374 1.8221 49.1905 1.98507C49.0069 2.14777 48.9154 2.34149 48.9154 2.56611C48.9154 2.78313 49.0069 2.97699 49.1905 3.14727Z"
        fill="#9719B9" />
    <path fill-rule="evenodd" clip-rule="evenodd"
        d="M62.9596 11.1249C62.7798 10.9619 62.5601 10.8807 62.3004 10.8807C62.0406 10.8807 61.8188 10.9619 61.6353 11.1249C61.4521 11.2877 61.3601 11.4813 61.3601 11.7059C61.3601 11.9232 61.4521 12.1169 61.6353 12.2871C61.8188 12.4578 62.0406 12.5428 62.3004 12.5428C62.5601 12.5428 62.7798 12.4578 62.9596 12.2871C63.139 12.1169 63.2289 11.9232 63.2289 11.7059C63.2289 11.4813 63.139 11.2877 62.9596 11.1249Z"
        fill="#9719B9" />
    <path fill-rule="evenodd" clip-rule="evenodd"
        d="M60.8066 11.1249C60.6272 10.9619 60.4074 10.8807 60.1477 10.8807C59.8876 10.8807 59.6662 10.9619 59.4826 11.1249C59.2991 11.2877 59.2075 11.4813 59.2075 11.7059C59.2075 11.9232 59.2991 12.1169 59.4826 12.2871C59.6662 12.4578 59.8876 12.5428 60.1477 12.5428C60.4074 12.5428 60.6272 12.4578 60.8066 12.2871C60.9864 12.1169 61.0763 11.9232 61.0763 11.7059C61.0763 11.4813 60.9864 11.2877 60.8066 11.1249Z"
        fill="#9719B9" />
</svg>